<?xml version="1.0" standalone="no"?>
<!DOCTYPE svg PUBLIC "-//W3C//DTD SVG 20010904//EN"
 "http://www.w3.org/TR/2001/REC-SVG-20010904/DTD/svg10.dtd">
<svg version="1.0" xmlns="http://www.w3.org/2000/svg"
 width="500.000000pt" height="500.000000pt" viewBox="0 0 500.000000 500.000000"
 preserveAspectRatio="xMidYMid meet">
<metadata>
Created by potrace 1.14, written by Peter Selinger 2001-2017
</metadata>
<g transform="translate(0.000000,500.000000) scale(0.100000,-0.100000)"
fill="#000000" stroke="none">
<path d="M3168 4985 c-57 -21 -102 -60 -131 -114 -25 -45 -27 -58 -29 -185
l-1 -136 -86 -1 c-156 -1 -206 -15 -262 -76 -80 -85 -87 -227 -19 -367 49
-102 146 -158 280 -161 l85 -2 1 -151 c2 -124 -1 -152 -12 -153 -8 -1 -17 -2
-21 -4 -5 -1 -21 -5 -38 -9 -348 -89 -598 -274 -726 -538 -19 -39 -28 -47 -58
-53 -160 -28 -410 -150 -545 -266 -271 -232 -390 -553 -322 -864 2 -11 10 -42
16 -70 6 -27 13 -57 15 -66 17 -83 91 -265 143 -349 l21 -35 -184 -184 c-153
-153 -185 -180 -185 -160 -2 108 -41 193 -123 272 -47 44 -75 62 -116 74 -130
37 -256 -28 -300 -157 -8 -25 -11 -161 -8 -495 l3 -460 24 -63 c30 -78 88
-143 160 -179 l55 -28 440 -2 c501 -2 514 0 584 69 57 57 75 110 68 203 -7 95
-40 169 -105 234 -66 66 -127 97 -201 100 -8 1 67 81 165 180 l178 178 51 -32
c334 -214 703 -248 1020 -95 204 99 354 237 463 428 23 41 42 77 42 82 0 4 9
27 20 52 18 42 22 45 89 62 241 63 456 219 609 444 35 50 60 92 56 92 -4 0 0
8 8 18 33 38 121 275 134 362 3 19 9 55 14 79 9 50 6 321 -4 366 -49 214 -126
363 -259 497 -150 153 -305 241 -516 294 -52 14 -98 28 -101 33 -3 5 -5 73 -4
152 l1 142 149 2 c171 2 205 13 267 85 44 52 61 111 54 192 -12 146 -75 239
-202 299 -54 26 -70 29 -162 29 -75 0 -103 3 -104 13 -8 165 -31 244 -92 319
-78 95 -203 138 -299 103z m417 -1950 c97 -21 207 -70 258 -116 47 -41 57 -83
53 -219 -7 -205 -123 -434 -282 -558 -50 -38 -61 -40 -69 -9 -10 38 -78 191
-96 217 -9 14 -31 51 -47 82 -59 108 -52 98 -130 198 -77 98 -187 199 -289
263 -46 29 -83 54 -83 57 0 18 200 85 285 95 33 3 61 8 63 10 10 10 269 -5
337 -20z m-867 -627 c73 -34 175 -112 229 -176 48 -56 64 -84 82 -149 l9 -32
-63 24 c-86 32 -165 84 -234 154 -47 47 -61 70 -74 118 -27 95 -26 96 51 61z
m-583 -76 c17 -99 102 -296 168 -391 110 -157 375 -365 551 -431 l28 -10 -43
-35 c-55 -43 -132 -81 -205 -100 -224 -58 -487 62 -715 326 -177 207 -126 459
129 630 41 27 76 48 78 47 2 -2 6 -18 9 -36z"/>
</g>
</svg>
